<mxfile host="65bd71144e">
    <diagram id="CbItgiZTvxdSQLB2g2ZH" name="ページ1">
        <mxGraphModel dx="1042" dy="591" grid="1" gridSize="10" guides="1" tooltips="1" connect="1" arrows="1" fold="1" page="1" pageScale="1" pageWidth="1169" pageHeight="827" math="0" shadow="0">
            <root>
                <mxCell id="0"/>
                <mxCell id="1" parent="0"/>
                <mxCell id="92" value="" style="rounded=0;whiteSpace=wrap;html=1;fillColor=#dae8fc;strokeColor=#6c8ebf;fillStyle=solid;opacity=50;glass=1;shadow=0;" parent="1" vertex="1">
                    <mxGeometry x="199" y="159" width="360" height="560" as="geometry"/>
                </mxCell>
                <mxCell id="126" value="" style="rounded=1;whiteSpace=wrap;html=1;shadow=0;glass=1;labelBorderColor=default;sketch=0;fillStyle=solid;fontColor=#FF0000;fillColor=default;gradientColor=none;opacity=50;" parent="1" vertex="1">
                    <mxGeometry x="390" y="630" width="60" height="60" as="geometry"/>
                </mxCell>
                <mxCell id="124" value="" style="rounded=1;whiteSpace=wrap;html=1;shadow=0;glass=1;labelBorderColor=default;sketch=0;fillStyle=solid;fontColor=#FF0000;fillColor=default;gradientColor=none;opacity=50;" parent="1" vertex="1">
                    <mxGeometry x="210" y="630" width="60" height="60" as="geometry"/>
                </mxCell>
                <mxCell id="93" value="" style="rounded=0;whiteSpace=wrap;html=1;fillColor=#fff2cc;strokeColor=#d6b656;fillStyle=solid;opacity=50;glass=1;" parent="1" vertex="1">
                    <mxGeometry x="800" y="160" width="80" height="400" as="geometry"/>
                </mxCell>
                <mxCell id="59" value="" style="rounded=0;whiteSpace=wrap;html=1;fillColor=#d5e8d4;strokeColor=#82b366;gradientColor=none;fillStyle=solid;opacity=50;glass=1;" parent="1" vertex="1">
                    <mxGeometry x="479" y="170" width="80" height="380" as="geometry"/>
                </mxCell>
                <mxCell id="53" value="" style="endArrow=classic;html=1;entryX=1;entryY=0.5;entryDx=0;entryDy=0;exitX=0;exitY=0.5;exitDx=0;exitDy=0;" parent="1" source="68" target="29" edge="1">
                    <mxGeometry width="50" height="50" relative="1" as="geometry">
                        <mxPoint x="790" y="240" as="sourcePoint"/>
                        <mxPoint x="420" y="300" as="targetPoint"/>
                    </mxGeometry>
                </mxCell>
                <mxCell id="54" value="" style="endArrow=classic;html=1;exitX=0;exitY=0.5;exitDx=0;exitDy=0;entryX=1;entryY=0.5;entryDx=0;entryDy=0;" parent="1" source="29" target="81" edge="1">
                    <mxGeometry width="50" height="50" relative="1" as="geometry">
                        <mxPoint x="429.9999999999998" y="310" as="sourcePoint"/>
                        <mxPoint x="150" y="310" as="targetPoint"/>
                    </mxGeometry>
                </mxCell>
                <mxCell id="58" value="" style="endArrow=classic;html=1;exitX=0.5;exitY=0;exitDx=0;exitDy=0;entryX=0.5;entryY=1;entryDx=0;entryDy=0;" parent="1" source="75" target="72" edge="1">
                    <mxGeometry width="50" height="50" relative="1" as="geometry">
                        <mxPoint x="550.0000000000102" y="400" as="sourcePoint"/>
                        <mxPoint x="830" y="400" as="targetPoint"/>
                    </mxGeometry>
                </mxCell>
                <mxCell id="60" value="" style="group" parent="1" vertex="1" connectable="0">
                    <mxGeometry x="500" y="200" width="40" height="60" as="geometry"/>
                </mxCell>
                <mxCell id="29" value="" style="whiteSpace=wrap;html=1;fillColor=default;" parent="60" vertex="1">
                    <mxGeometry y="10" width="40" height="20" as="geometry"/>
                </mxCell>
                <mxCell id="30" value="" style="ellipse;whiteSpace=wrap;html=1;fillColor=default;" parent="60" vertex="1">
                    <mxGeometry width="40" height="20" as="geometry"/>
                </mxCell>
                <mxCell id="31" value="" style="whiteSpace=wrap;html=1;fillColor=default;" parent="60" vertex="1">
                    <mxGeometry y="30" width="40" height="20" as="geometry"/>
                </mxCell>
                <mxCell id="32" value="" style="ellipse;whiteSpace=wrap;html=1;fillColor=default;" parent="60" vertex="1">
                    <mxGeometry y="20" width="40" height="20" as="geometry"/>
                </mxCell>
                <mxCell id="33" value="" style="ellipse;whiteSpace=wrap;html=1;fillColor=default;" parent="60" vertex="1">
                    <mxGeometry y="40" width="40" height="20" as="geometry"/>
                </mxCell>
                <mxCell id="61" value="" style="group" parent="1" vertex="1" connectable="0">
                    <mxGeometry x="500" y="460" width="40" height="60" as="geometry"/>
                </mxCell>
                <mxCell id="62" value="" style="whiteSpace=wrap;html=1;fillColor=default;" parent="61" vertex="1">
                    <mxGeometry y="10" width="40" height="20" as="geometry"/>
                </mxCell>
                <mxCell id="63" value="" style="ellipse;whiteSpace=wrap;html=1;fillColor=default;" parent="61" vertex="1">
                    <mxGeometry width="40" height="20" as="geometry"/>
                </mxCell>
                <mxCell id="64" value="" style="whiteSpace=wrap;html=1;fillColor=default;" parent="61" vertex="1">
                    <mxGeometry y="30" width="40" height="20" as="geometry"/>
                </mxCell>
                <mxCell id="65" value="" style="ellipse;whiteSpace=wrap;html=1;fillColor=default;" parent="61" vertex="1">
                    <mxGeometry y="20" width="40" height="20" as="geometry"/>
                </mxCell>
                <mxCell id="66" value="" style="ellipse;whiteSpace=wrap;html=1;fillColor=default;" parent="61" vertex="1">
                    <mxGeometry y="40" width="40" height="20" as="geometry"/>
                </mxCell>
                <mxCell id="67" value="" style="group" parent="1" vertex="1" connectable="0">
                    <mxGeometry x="820" y="200" width="40" height="60" as="geometry"/>
                </mxCell>
                <mxCell id="68" value="" style="whiteSpace=wrap;html=1;fillColor=default;" parent="67" vertex="1">
                    <mxGeometry y="10" width="40" height="20" as="geometry"/>
                </mxCell>
                <mxCell id="69" value="" style="ellipse;whiteSpace=wrap;html=1;fillColor=default;" parent="67" vertex="1">
                    <mxGeometry width="40" height="20" as="geometry"/>
                </mxCell>
                <mxCell id="70" value="" style="whiteSpace=wrap;html=1;fillColor=default;" parent="67" vertex="1">
                    <mxGeometry y="30" width="40" height="20" as="geometry"/>
                </mxCell>
                <mxCell id="71" value="" style="ellipse;whiteSpace=wrap;html=1;fillColor=default;" parent="67" vertex="1">
                    <mxGeometry y="20" width="40" height="20" as="geometry"/>
                </mxCell>
                <mxCell id="72" value="" style="ellipse;whiteSpace=wrap;html=1;fillColor=default;" parent="67" vertex="1">
                    <mxGeometry y="40" width="40" height="20" as="geometry"/>
                </mxCell>
                <mxCell id="73" value="" style="group" parent="1" vertex="1" connectable="0">
                    <mxGeometry x="820" y="460" width="40" height="60" as="geometry"/>
                </mxCell>
                <mxCell id="74" value="" style="whiteSpace=wrap;html=1;fillColor=default;" parent="73" vertex="1">
                    <mxGeometry y="10" width="40" height="20" as="geometry"/>
                </mxCell>
                <mxCell id="75" value="" style="ellipse;whiteSpace=wrap;html=1;fillColor=default;" parent="73" vertex="1">
                    <mxGeometry width="40" height="20" as="geometry"/>
                </mxCell>
                <mxCell id="76" value="" style="whiteSpace=wrap;html=1;fillColor=default;" parent="73" vertex="1">
                    <mxGeometry y="30" width="40" height="20" as="geometry"/>
                </mxCell>
                <mxCell id="77" value="" style="ellipse;whiteSpace=wrap;html=1;fillColor=default;" parent="73" vertex="1">
                    <mxGeometry y="20" width="40" height="20" as="geometry"/>
                </mxCell>
                <mxCell id="78" value="" style="ellipse;whiteSpace=wrap;html=1;fillColor=default;" parent="73" vertex="1">
                    <mxGeometry y="40" width="40" height="20" as="geometry"/>
                </mxCell>
                <mxCell id="79" value="" style="endArrow=none;html=1;exitX=0.5;exitY=0;exitDx=0;exitDy=0;entryX=0.5;entryY=1;entryDx=0;entryDy=0;startArrow=classic;startFill=1;endFill=0;" parent="1" source="88" target="85" edge="1">
                    <mxGeometry width="50" height="50" relative="1" as="geometry">
                        <mxPoint x="-49.99999999998977" y="400" as="sourcePoint"/>
                        <mxPoint x="230" y="400" as="targetPoint"/>
                    </mxGeometry>
                </mxCell>
                <mxCell id="80" value="" style="group" parent="1" vertex="1" connectable="0">
                    <mxGeometry x="220" y="200" width="40" height="60" as="geometry"/>
                </mxCell>
                <mxCell id="81" value="" style="whiteSpace=wrap;html=1;fillColor=default;" parent="80" vertex="1">
                    <mxGeometry y="10" width="40" height="20" as="geometry"/>
                </mxCell>
                <mxCell id="82" value="" style="ellipse;whiteSpace=wrap;html=1;fillColor=default;" parent="80" vertex="1">
                    <mxGeometry width="40" height="20" as="geometry"/>
                </mxCell>
                <mxCell id="83" value="" style="whiteSpace=wrap;html=1;fillColor=default;" parent="80" vertex="1">
                    <mxGeometry y="30" width="40" height="20" as="geometry"/>
                </mxCell>
                <mxCell id="84" value="" style="ellipse;whiteSpace=wrap;html=1;fillColor=default;" parent="80" vertex="1">
                    <mxGeometry y="20" width="40" height="20" as="geometry"/>
                </mxCell>
                <mxCell id="85" value="" style="ellipse;whiteSpace=wrap;html=1;fillColor=default;" parent="80" vertex="1">
                    <mxGeometry y="40" width="40" height="20" as="geometry"/>
                </mxCell>
                <mxCell id="86" value="" style="group" parent="1" vertex="1" connectable="0">
                    <mxGeometry x="220" y="460" width="40" height="60" as="geometry"/>
                </mxCell>
                <mxCell id="87" value="" style="whiteSpace=wrap;html=1;fillColor=default;" parent="86" vertex="1">
                    <mxGeometry y="10" width="40" height="20" as="geometry"/>
                </mxCell>
                <mxCell id="88" value="" style="ellipse;whiteSpace=wrap;html=1;fillColor=default;" parent="86" vertex="1">
                    <mxGeometry width="40" height="20" as="geometry"/>
                </mxCell>
                <mxCell id="89" value="" style="whiteSpace=wrap;html=1;fillColor=default;" parent="86" vertex="1">
                    <mxGeometry y="30" width="40" height="20" as="geometry"/>
                </mxCell>
                <mxCell id="90" value="" style="ellipse;whiteSpace=wrap;html=1;fillColor=default;" parent="86" vertex="1">
                    <mxGeometry y="20" width="40" height="20" as="geometry"/>
                </mxCell>
                <mxCell id="91" value="" style="ellipse;whiteSpace=wrap;html=1;fillColor=default;" parent="86" vertex="1">
                    <mxGeometry y="40" width="40" height="20" as="geometry"/>
                </mxCell>
                <mxCell id="94" value="fetch" style="text;html=1;strokeColor=none;fillColor=none;align=center;verticalAlign=middle;whiteSpace=wrap;rounded=0;fillStyle=solid;opacity=50;" parent="1" vertex="1">
                    <mxGeometry x="640" y="190" width="80" height="30" as="geometry"/>
                </mxCell>
                <mxCell id="95" value="merge&lt;br&gt;(pull request)" style="text;html=1;strokeColor=none;fillColor=none;align=center;verticalAlign=middle;whiteSpace=wrap;rounded=0;fillStyle=solid;opacity=50;" parent="1" vertex="1">
                    <mxGeometry x="880" y="345" width="80" height="30" as="geometry"/>
                </mxCell>
                <mxCell id="96" value="main" style="text;html=1;strokeColor=none;fillColor=none;align=center;verticalAlign=middle;whiteSpace=wrap;rounded=0;fillStyle=solid;opacity=50;labelBorderColor=default;" parent="1" vertex="1">
                    <mxGeometry x="800" y="170" width="80" height="30" as="geometry"/>
                </mxCell>
                <mxCell id="97" value="post/onamae" style="text;html=1;strokeColor=none;fillColor=none;align=center;verticalAlign=middle;whiteSpace=wrap;rounded=0;fillStyle=solid;opacity=50;labelBorderColor=default;" parent="1" vertex="1">
                    <mxGeometry x="800" y="520" width="80" height="30" as="geometry"/>
                </mxCell>
                <mxCell id="98" value="merge" style="text;html=1;strokeColor=none;fillColor=none;align=center;verticalAlign=middle;whiteSpace=wrap;rounded=0;fillStyle=solid;opacity=50;" parent="1" vertex="1">
                    <mxGeometry x="340" y="190" width="80" height="30" as="geometry"/>
                </mxCell>
                <mxCell id="99" value="merge" style="text;html=1;strokeColor=none;fillColor=none;align=center;verticalAlign=middle;whiteSpace=wrap;rounded=0;fillStyle=solid;opacity=50;" parent="1" vertex="1">
                    <mxGeometry x="240" y="345" width="80" height="30" as="geometry"/>
                </mxCell>
                <mxCell id="100" value="origin/main" style="text;html=1;strokeColor=none;fillColor=none;align=center;verticalAlign=middle;whiteSpace=wrap;rounded=0;fillStyle=solid;opacity=50;labelBorderColor=default;" parent="1" vertex="1">
                    <mxGeometry x="480" y="170" width="80" height="30" as="geometry"/>
                </mxCell>
                <mxCell id="101" value="origin/post/onamae" style="text;html=1;strokeColor=none;fillColor=none;align=center;verticalAlign=middle;whiteSpace=wrap;rounded=0;fillStyle=solid;opacity=50;labelBorderColor=default;" parent="1" vertex="1">
                    <mxGeometry x="480" y="520" width="80" height="30" as="geometry"/>
                </mxCell>
                <mxCell id="102" value="ローカルリポジトリ&lt;br&gt;（パソコンなど）" style="rounded=0;whiteSpace=wrap;html=1;fillColor=#dae8fc;strokeColor=#6c8ebf;fillStyle=solid;opacity=50;glass=1;shadow=0;" parent="1" vertex="1">
                    <mxGeometry x="760" y="580" width="160" height="40" as="geometry"/>
                </mxCell>
                <mxCell id="103" value="リモート追跡ブランチ" style="rounded=0;whiteSpace=wrap;html=1;fillColor=#d5e8d4;strokeColor=#82b366;gradientColor=none;fillStyle=solid;opacity=50;glass=1;" parent="1" vertex="1">
                    <mxGeometry x="760" y="620" width="160" height="40" as="geometry"/>
                </mxCell>
                <mxCell id="105" value="リモートリポジトリ&lt;br&gt;（Github）" style="rounded=0;whiteSpace=wrap;html=1;fillColor=#fff2cc;strokeColor=#d6b656;fillStyle=solid;opacity=50;glass=1;" parent="1" vertex="1">
                    <mxGeometry x="760" y="660" width="160" height="40" as="geometry"/>
                </mxCell>
                <mxCell id="106" value="" style="endArrow=classic;html=1;entryX=1;entryY=0.5;entryDx=0;entryDy=0;exitX=0;exitY=0.5;exitDx=0;exitDy=0;strokeColor=#FF0000;" parent="1" source="70" target="83" edge="1">
                    <mxGeometry width="50" height="50" relative="1" as="geometry">
                        <mxPoint x="829.9999999999998" y="230" as="sourcePoint"/>
                        <mxPoint x="550" y="230" as="targetPoint"/>
                    </mxGeometry>
                </mxCell>
                <mxCell id="107" value="pull" style="text;html=1;strokeColor=none;fillColor=none;align=center;verticalAlign=middle;whiteSpace=wrap;rounded=0;fillStyle=solid;opacity=50;fontColor=#FF0000;" parent="1" vertex="1">
                    <mxGeometry x="640" y="240" width="80" height="30" as="geometry"/>
                </mxCell>
                <mxCell id="108" value="" style="endArrow=classic;html=1;entryX=0;entryY=0.5;entryDx=0;entryDy=0;exitX=1;exitY=0.5;exitDx=0;exitDy=0;strokeColor=#FF0000;" parent="1" source="89" target="76" edge="1">
                    <mxGeometry width="50" height="50" relative="1" as="geometry">
                        <mxPoint x="829.9999999999998" y="250" as="sourcePoint"/>
                        <mxPoint x="270" y="250" as="targetPoint"/>
                    </mxGeometry>
                </mxCell>
                <mxCell id="109" value="push" style="text;html=1;strokeColor=none;fillColor=none;align=center;verticalAlign=middle;whiteSpace=wrap;rounded=0;fillStyle=solid;opacity=50;fontColor=#FF0000;" parent="1" vertex="1">
                    <mxGeometry x="640" y="500" width="80" height="30" as="geometry"/>
                </mxCell>
                <mxCell id="110" value="post/onamae" style="text;html=1;strokeColor=none;fillColor=none;align=center;verticalAlign=middle;whiteSpace=wrap;rounded=0;fillStyle=solid;opacity=50;labelBorderColor=default;" parent="1" vertex="1">
                    <mxGeometry x="260" y="430" width="80" height="30" as="geometry"/>
                </mxCell>
                <mxCell id="111" value="main" style="text;html=1;strokeColor=none;fillColor=none;align=center;verticalAlign=middle;whiteSpace=wrap;rounded=0;fillStyle=solid;opacity=50;labelBorderColor=default;" parent="1" vertex="1">
                    <mxGeometry x="260" y="260" width="80" height="30" as="geometry"/>
                </mxCell>
                <mxCell id="113" value="" style="sketch=0;pointerEvents=1;shadow=0;dashed=0;html=1;strokeColor=#006EAF;fillColor=#1ba1e2;labelPosition=center;verticalLabelPosition=bottom;verticalAlign=top;outlineConnect=0;align=center;shape=mxgraph.office.concepts.web_page;rounded=0;glass=1;labelBorderColor=default;fillStyle=solid;opacity=50;fontColor=#ffffff;" parent="1" vertex="1">
                    <mxGeometry x="1040" y="210" width="40" height="40" as="geometry"/>
                </mxCell>
                <mxCell id="114" value="" style="endArrow=block;html=1;exitX=1;exitY=0.5;exitDx=0;exitDy=0;fillColor=#1ba1e2;strokeColor=#006EAF;endFill=1;shape=flexArrow;" parent="1" source="71" target="113" edge="1">
                    <mxGeometry width="50" height="50" relative="1" as="geometry">
                        <mxPoint x="830" y="230" as="sourcePoint"/>
                        <mxPoint x="550" y="230" as="targetPoint"/>
                    </mxGeometry>
                </mxCell>
                <mxCell id="115" value="Github Pages" style="text;html=1;strokeColor=none;fillColor=none;align=center;verticalAlign=middle;whiteSpace=wrap;rounded=0;fillStyle=solid;opacity=50;labelBorderColor=default;" parent="1" vertex="1">
                    <mxGeometry x="1020" y="250" width="80" height="30" as="geometry"/>
                </mxCell>
                <mxCell id="116" value="Github Actions" style="text;html=1;strokeColor=none;fillColor=none;align=center;verticalAlign=middle;whiteSpace=wrap;rounded=0;fillStyle=solid;opacity=50;" parent="1" vertex="1">
                    <mxGeometry x="920" y="230" width="80" height="30" as="geometry"/>
                </mxCell>
                <mxCell id="117" value="" style="endArrow=classic;html=1;exitX=0.5;exitY=0;exitDx=0;exitDy=0;entryX=0.5;entryY=1;entryDx=0;entryDy=0;dashed=1;dashPattern=1 1;" parent="1" source="95" target="116" edge="1">
                    <mxGeometry width="50" height="50" relative="1" as="geometry">
                        <mxPoint x="850" y="470" as="sourcePoint"/>
                        <mxPoint x="850" y="270" as="targetPoint"/>
                    </mxGeometry>
                </mxCell>
                <mxCell id="125" value="" style="sketch=0;pointerEvents=1;shadow=0;dashed=0;html=1;strokeColor=none;fillColor=#505050;labelPosition=center;verticalLabelPosition=bottom;verticalAlign=top;outlineConnect=0;align=center;shape=mxgraph.office.concepts.web_page;rounded=0;glass=1;labelBorderColor=default;fillStyle=solid;fontColor=#FF0000;opacity=50;" parent="1" vertex="1">
                    <mxGeometry x="220" y="640" width="40" height="40" as="geometry"/>
                </mxCell>
                <mxCell id="127" value="" style="sketch=0;pointerEvents=1;shadow=0;dashed=0;html=1;strokeColor=none;fillColor=#505050;labelPosition=center;verticalLabelPosition=bottom;verticalAlign=top;outlineConnect=0;align=center;shape=mxgraph.office.concepts.web_page;rounded=0;glass=1;labelBorderColor=default;fillStyle=solid;fontColor=#FF0000;opacity=50;" parent="1" vertex="1">
                    <mxGeometry x="400" y="640" width="40" height="40" as="geometry"/>
                </mxCell>
                <mxCell id="129" value="" style="endArrow=block;html=1;exitX=0;exitY=0.5;exitDx=0;exitDy=0;fillColor=#f5f5f5;strokeColor=#666666;endFill=1;shape=flexArrow;entryX=1;entryY=0.5;entryDx=0;entryDy=0;" parent="1" source="126" target="124" edge="1">
                    <mxGeometry width="50" height="50" relative="1" as="geometry">
                        <mxPoint x="349.99999999998704" y="750" as="sourcePoint"/>
                        <mxPoint x="530" y="750" as="targetPoint"/>
                    </mxGeometry>
                </mxCell>
                <mxCell id="130" value="add" style="text;html=1;align=center;verticalAlign=middle;whiteSpace=wrap;rounded=0;fillStyle=solid;opacity=50;fontColor=#000000;" parent="1" vertex="1">
                    <mxGeometry x="300" y="670" width="80" height="30" as="geometry"/>
                </mxCell>
                <mxCell id="131" value="" style="endArrow=block;html=1;exitX=0.5;exitY=0;exitDx=0;exitDy=0;fillColor=#f5f5f5;strokeColor=#666666;endFill=1;shape=flexArrow;entryX=0.5;entryY=1;entryDx=0;entryDy=0;" parent="1" source="124" target="91" edge="1">
                    <mxGeometry width="50" height="50" relative="1" as="geometry">
                        <mxPoint x="400" y="669.9999999999999" as="sourcePoint"/>
                        <mxPoint x="240" y="580" as="targetPoint"/>
                    </mxGeometry>
                </mxCell>
                <mxCell id="132" value="commit" style="text;html=1;align=center;verticalAlign=middle;whiteSpace=wrap;rounded=0;fillStyle=solid;opacity=50;fontColor=#000000;" parent="1" vertex="1">
                    <mxGeometry x="250" y="580" width="80" height="30" as="geometry"/>
                </mxCell>
                <mxCell id="133" value="worktree" style="text;html=1;align=center;verticalAlign=middle;whiteSpace=wrap;rounded=0;fillStyle=solid;opacity=50;fontColor=#000000;labelBorderColor=default;" parent="1" vertex="1">
                    <mxGeometry x="380" y="690" width="80" height="30" as="geometry"/>
                </mxCell>
                <mxCell id="134" value="index" style="text;html=1;align=center;verticalAlign=middle;whiteSpace=wrap;rounded=0;fillStyle=solid;opacity=50;fontColor=#000000;labelBorderColor=default;" parent="1" vertex="1">
                    <mxGeometry x="200" y="690" width="80" height="30" as="geometry"/>
                </mxCell>
                <mxCell id="135" value="凡例" style="text;html=1;strokeColor=default;fillColor=none;align=left;verticalAlign=top;whiteSpace=wrap;rounded=0;fillStyle=solid;opacity=50;fontColor=#000000;" vertex="1" parent="1">
                    <mxGeometry x="720" y="570" width="210" height="140" as="geometry"/>
                </mxCell>
            </root>
        </mxGraphModel>
    </diagram>
</mxfile>
